<svg width="137" height="18" viewBox="0 0 137 18" fill="none" xmlns="http://www.w3.org/2000/svg">
<path d="M10.25 11.66V14H0.494V1.4H10.016V3.74H3.392V6.476H9.242V8.744H3.392V11.66H10.25ZM22.2919 4.316V12.38C22.2919 14.156 21.8299 15.476 20.9059 16.34C19.9819 17.204 18.6319 17.636 16.8559 17.636C15.9199 17.636 15.0319 17.522 14.1919 17.294C13.3519 17.066 12.6559 16.736 12.1039 16.304L13.2199 14.288C13.6279 14.624 14.1439 14.888 14.7679 15.08C15.3919 15.284 16.0159 15.386 16.6399 15.386C17.6119 15.386 18.3259 15.164 18.7819 14.72C19.2499 14.288 19.4839 13.628 19.4839 12.74V12.326C18.7519 13.13 17.7319 13.532 16.4239 13.532C15.5359 13.532 14.7199 13.34 13.9759 12.956C13.2439 12.56 12.6619 12.008 12.2299 11.3C11.7979 10.592 11.5819 9.776 11.5819 8.852C11.5819 7.928 11.7979 7.112 12.2299 6.404C12.6619 5.696 13.2439 5.15 13.9759 4.766C14.7199 4.37 15.5359 4.172 16.4239 4.172C17.8279 4.172 18.8959 4.634 19.6279 5.558V4.316H22.2919ZM16.9819 11.228C17.7259 11.228 18.3319 11.012 18.7999 10.58C19.2799 10.136 19.5199 9.56 19.5199 8.852C19.5199 8.144 19.2799 7.574 18.7999 7.142C18.3319 6.698 17.7259 6.476 16.9819 6.476C16.2379 6.476 15.6259 6.698 15.1459 7.142C14.6659 7.574 14.4259 8.144 14.4259 8.852C14.4259 9.56 14.6659 10.136 15.1459 10.58C15.6259 11.012 16.2379 11.228 16.9819 11.228ZM29.5134 14.144C28.4934 14.144 27.5754 13.934 26.7594 13.514C25.9554 13.082 25.3254 12.488 24.8694 11.732C24.4134 10.976 24.1854 10.118 24.1854 9.158C24.1854 8.198 24.4134 7.34 24.8694 6.584C25.3254 5.828 25.9554 5.24 26.7594 4.82C27.5754 4.388 28.4934 4.172 29.5134 4.172C30.5334 4.172 31.4454 4.388 32.2494 4.82C33.0534 5.24 33.6834 5.828 34.1394 6.584C34.5954 7.34 34.8234 8.198 34.8234 9.158C34.8234 10.118 34.5954 10.976 34.1394 11.732C33.6834 12.488 33.0534 13.082 32.2494 13.514C31.4454 13.934 30.5334 14.144 29.5134 14.144ZM29.5134 11.84C30.2334 11.84 30.8214 11.6 31.2774 11.12C31.7454 10.628 31.9794 9.974 31.9794 9.158C31.9794 8.342 31.7454 7.694 31.2774 7.214C30.8214 6.722 30.2334 6.476 29.5134 6.476C28.7934 6.476 28.1994 6.722 27.7314 7.214C27.2634 7.694 27.0294 8.342 27.0294 9.158C27.0294 9.974 27.2634 10.628 27.7314 11.12C28.1994 11.6 28.7934 11.84 29.5134 11.84ZM46.0486 4.316L41.9626 14H39.0646L34.9966 4.316H37.8946L40.5766 10.904L43.3486 4.316H46.0486ZM60.9501 10.634H53.9301L52.4181 14H51.0321L56.7921 1.4H58.1061L63.8661 14H62.4621L60.9501 10.634ZM60.4641 9.554L57.4401 2.786L54.4161 9.554H60.4641ZM69.5165 14.09C68.5805 14.09 67.7405 13.886 66.9965 13.478C66.2645 13.07 65.6885 12.5 65.2685 11.768C64.8485 11.024 64.6385 10.19 64.6385 9.266C64.6385 8.342 64.8485 7.514 65.2685 6.782C65.6885 6.05 66.2645 5.48 66.9965 5.072C67.7405 4.664 68.5805 4.46 69.5165 4.46C70.3325 4.46 71.0585 4.622 71.6945 4.946C72.3425 5.258 72.8525 5.72 73.2245 6.332L72.2705 6.98C71.9585 6.512 71.5625 6.164 71.0825 5.936C70.6025 5.696 70.0805 5.576 69.5165 5.576C68.8325 5.576 68.2145 5.732 67.6625 6.044C67.1225 6.344 66.6965 6.776 66.3845 7.34C66.0845 7.904 65.9345 8.546 65.9345 9.266C65.9345 9.998 66.0845 10.646 66.3845 11.21C66.6965 11.762 67.1225 12.194 67.6625 12.506C68.2145 12.806 68.8325 12.956 69.5165 12.956C70.0805 12.956 70.6025 12.842 71.0825 12.614C71.5625 12.386 71.9585 12.038 72.2705 11.57L73.2245 12.218C72.8525 12.83 72.3425 13.298 71.6945 13.622C71.0465 13.934 70.3205 14.09 69.5165 14.09ZM79.0471 4.46C80.2831 4.46 81.2311 4.772 81.8911 5.396C82.5511 6.008 82.8811 6.92 82.8811 8.132V14H81.6571V12.524C81.3691 13.016 80.9431 13.4 80.3791 13.676C79.8271 13.952 79.1671 14.09 78.3991 14.09C77.3431 14.09 76.5031 13.838 75.8791 13.334C75.2551 12.83 74.9431 12.164 74.9431 11.336C74.9431 10.532 75.2311 9.884 75.8071 9.392C76.3951 8.9 77.3251 8.654 78.5971 8.654H81.6031V8.078C81.6031 7.262 81.3751 6.644 80.9191 6.224C80.4631 5.792 79.7971 5.576 78.9211 5.576C78.3211 5.576 77.7451 5.678 77.1931 5.882C76.6411 6.074 76.1671 6.344 75.7711 6.692L75.1951 5.738C75.6751 5.33 76.2511 5.018 76.9231 4.802C77.5951 4.574 78.3031 4.46 79.0471 4.46ZM78.5971 13.082C79.3171 13.082 79.9351 12.92 80.4511 12.596C80.9671 12.26 81.3511 11.78 81.6031 11.156V9.608H78.6331C77.0131 9.608 76.2031 10.172 76.2031 11.3C76.2031 11.852 76.4131 12.29 76.8331 12.614C77.2531 12.926 77.8411 13.082 78.5971 13.082ZM95.0275 0.643999V14H93.8035V12.128C93.4195 12.764 92.9095 13.25 92.2735 13.586C91.6495 13.922 90.9415 14.09 90.1495 14.09C89.2615 14.09 88.4575 13.886 87.7375 13.478C87.0175 13.07 86.4535 12.5 86.0455 11.768C85.6375 11.036 85.4335 10.202 85.4335 9.266C85.4335 8.33 85.6375 7.496 86.0455 6.764C86.4535 6.032 87.0175 5.468 87.7375 5.072C88.4575 4.664 89.2615 4.46 90.1495 4.46C90.9175 4.46 91.6075 4.622 92.2195 4.946C92.8435 5.258 93.3535 5.72 93.7495 6.332V0.643999H95.0275ZM90.2575 12.956C90.9175 12.956 91.5115 12.806 92.0395 12.506C92.5795 12.194 92.9995 11.756 93.2995 11.192C93.6115 10.628 93.7675 9.986 93.7675 9.266C93.7675 8.546 93.6115 7.904 93.2995 7.34C92.9995 6.776 92.5795 6.344 92.0395 6.044C91.5115 5.732 90.9175 5.576 90.2575 5.576C89.5855 5.576 88.9795 5.732 88.4395 6.044C87.9115 6.344 87.4915 6.776 87.1795 7.34C86.8795 7.904 86.7295 8.546 86.7295 9.266C86.7295 9.986 86.8795 10.628 87.1795 11.192C87.4915 11.756 87.9115 12.194 88.4395 12.506C88.9795 12.806 89.5855 12.956 90.2575 12.956ZM106.831 9.662H98.9107C98.9827 10.646 99.3607 11.444 100.045 12.056C100.729 12.656 101.593 12.956 102.637 12.956C103.225 12.956 103.765 12.854 104.257 12.65C104.749 12.434 105.175 12.122 105.535 11.714L106.255 12.542C105.835 13.046 105.307 13.43 104.671 13.694C104.047 13.958 103.357 14.09 102.601 14.09C101.629 14.09 100.765 13.886 100.009 13.478C99.2647 13.058 98.6827 12.482 98.2627 11.75C97.8427 11.018 97.6327 10.19 97.6327 9.266C97.6327 8.342 97.8307 7.514 98.2267 6.782C98.6347 6.05 99.1867 5.48 99.8827 5.072C100.591 4.664 101.383 4.46 102.259 4.46C103.135 4.46 103.921 4.664 104.617 5.072C105.313 5.48 105.859 6.05 106.255 6.782C106.651 7.502 106.849 8.33 106.849 9.266L106.831 9.662ZM102.259 5.558C101.347 5.558 100.579 5.852 99.9547 6.44C99.3427 7.016 98.9947 7.772 98.9107 8.708H105.625C105.541 7.772 105.187 7.016 104.563 6.44C103.951 5.852 103.183 5.558 102.259 5.558ZM121.258 4.46C122.446 4.46 123.376 4.802 124.048 5.486C124.732 6.17 125.074 7.178 125.074 8.51V14H123.796V8.636C123.796 7.652 123.556 6.902 123.076 6.386C122.608 5.87 121.942 5.612 121.078 5.612C120.094 5.612 119.32 5.918 118.756 6.53C118.192 7.13 117.91 7.964 117.91 9.032V14H116.632V8.636C116.632 7.652 116.392 6.902 115.912 6.386C115.444 5.87 114.772 5.612 113.896 5.612C112.924 5.612 112.15 5.918 111.574 6.53C111.01 7.13 110.728 7.964 110.728 9.032V14H109.45V4.532H110.674V6.26C111.01 5.684 111.478 5.24 112.078 4.928C112.678 4.616 113.368 4.46 114.148 4.46C114.94 4.46 115.624 4.628 116.2 4.964C116.788 5.3 117.226 5.798 117.514 6.458C117.862 5.834 118.36 5.348 119.008 5C119.668 4.64 120.418 4.46 121.258 4.46ZM136.32 4.532L131.586 15.134C131.202 16.022 130.758 16.652 130.254 17.024C129.75 17.396 129.144 17.582 128.436 17.582C127.98 17.582 127.554 17.51 127.158 17.366C126.762 17.222 126.42 17.006 126.132 16.718L126.726 15.764C127.206 16.244 127.782 16.484 128.454 16.484C128.886 16.484 129.252 16.364 129.552 16.124C129.864 15.884 130.152 15.476 130.416 14.9L130.83 13.982L126.6 4.532H127.932L131.496 12.578L135.06 4.532H136.32Z" fill="white"/>
</svg>
